PathFileType	4	(X/Y/Z)	C:/Users/beibeiliu/ov580/test_trc\sequence.36_training_dense_left.trc
DataRate	CameraRate	NumFrames	NumMarkers	Units	OrigDataRate	OrigDataStartFrame	OrigNumFrames
120	120	22	19	mm	120	128	255
Frame#	Time	ThumbCMC			ThumbMCP			ThumbIP			ThumbTip			IndexMCP			IndexPIP			IndexTip			MiddleMCP			MiddlePIP			MiddleTip			RingMCP			RingPIP			RingTip			PinkyMCP			PinkyPIP			PinkyTip			BackHand1			BackHand2			BackHand3	
		X0	Y0	Z0	X1	Y1	Z1	X2	Y2	Z2	X3	Y3	Z3	X4	Y4	Z4	X5	Y5	Z5	X6	Y6	Z6	X7	Y7	Z7	X8	Y8	Z8	X9	Y9	Z9	X10	Y10	Z10	X11	Y11	Z11	X12	Y12	Z12	X13	Y13	Z13	X14	Y14	Z14	X15	Y15	Z15	X16	Y16	Z16	X17	Y17	Z17	X18	Y18	Z18	
127	1.05833	-218.804	44.0571	64.6779	-213.362	73.8664	57.4324	-198.57	88.7598	45.557	-181.068	106.612	35.0796	-180.119	51.2067	7.93023	-169.293	71.392	-2.1889	-158.621	97.9518	10.6016	-162.736	45.567	8.81952	-146.971	68.8811	3.67561	-146.088	92.9749	25.0895	-147.901	38.7274	23.1237	-136.634	61.3136	19.8924	-146.005	84.8154	36.6894	-137.612	30.1212	45.074	-126.542	51.1585	37.5159	-139.568	73.4655	46.0914	-177.081	11.1005	56.2686	-187.776	1.34353	72.2751	-200.037	14.7154	52.6573	
128	1.06667	-219.009	44.5219	60.677	-211.229	73.749	53.635	-196.443	90.3342	41.7712	-181.636	104.994	35.8845	-182.146	49.7891	5.60136	-166.831	72.1189	-5.90135	-161.555	95.0073	3.03203	-160.718	44.5091	5.61096	-146.398	68.2004	-1.46639	-142.697	89.4117	21.6973	-147.215	37.1194	17.8793	-136.871	58.4479	14.7233	-143.521	81.8253	34.1567	-142.763	27.8497	39.9239	-127.605	49.4703	33.1459	-141.404	71.8519	42.6484	-176.89	11.0412	49.2637	-191.299	-1.05729	69.3909	-206.762	14.7187	49.3377	
129	1.075	-220.227	46.0278	55.9707	-209.148	73.6066	49.9995	-193.945	91.3907	37.1244	-180.257	101.635	33.8893	-186.771	51.8754	1.14089	-167.691	74.8589	-9.91667	-160.255	95.09	0.0208558	-161.681	41.447	4.36304	-146.159	67.082	-3.8161	-141.209	88.7352	17.4383	-148.645	35.5794	15.2251	-135.802	57.9971	12.1735	-141.096	78.6742	30.637	-141.652	24.7119	35.7183	-130.267	46.9066	27.7305	-139.542	70.5148	37.9548	-180.46	9.27012	44.4944	-196.181	-0.459741	62.6629	-208.788	17.6863	42.3991	
130	1.08333	-220.21	46.7649	50.3073	-209.248	75.7676	43.7374	-193.7	91.8893	35.9254	-177.613	104.779	30.5717	-188.334	53.313	-2.7471	-167.645	73.3103	-13.1882	-156.744	95.8521	1.02542	-165.846	43.4278	-1.8468	-146.963	64.7009	-8.12848	-141.944	86.9219	12.5467	-152.638	31.721	13.8377	-140.057	60.4656	7.93168	-143.023	78.9461	28.6722	-144.591	25.7643	29.0927	-132.993	44.51	23.8578	-138.557	66.8705	35.8618	-180.451	8.1245	36.8924	-196.832	0.334991	58.7153	-211.817	16.3746	40.1097	
131	1.09167	-221.343	45.7873	49.6526	-209.33	74.3991	43.5294	-195.819	91.136	36.2614	-175.607	102.202	31.3564	-186.174	55.5406	-6.61514	-170.307	73.0003	-15.2744	-155.812	92.8734	-1.26237	-165.6	43.484	-5.92279	-147.166	65.63	-10.0424	-140.383	86.749	14.1401	-153.241	33.8269	9.55234	-137.201	57.5713	6.93203	-139.153	75.2103	26.1841	-148.88	25.0995	25.7635	-132.665	43.076	23.3358	-137.429	67.2408	36.3449	-183.229	7.33253	36.6326	-202.027	-0.700508	52.5555	-212.823	16.3989	37.049	
132	1.1	-223.094	46.9691	45.4307	-211.224	77.772	41.9496	-194.811	92.0396	33.712	-177.161	102.301	31.7777	-185.562	55.2917	-6.47033	-166.285	74.0087	-14.3735	-155.956	94.8498	-1.42051	-165.849	45.4733	-7.39489	-145.781	65.9084	-8.81072	-140.652	87.3856	16.0952	-156.667	36.5158	5.1551	-138.55	58.3548	7.37633	-142.752	76.5204	24.7434	-150.421	24.3521	23.8353	-134.601	44.0625	21.9052	-139.857	64.2544	36.1788	-186.271	11.0291	31.4397	-206.676	-1.42177	51.9667	-214.465	19.6315	28.3301	
133	1.10833	-226.318	50.5242	43.1219	-214.447	76.7248	42.9534	-195.203	90.5527	35.8777	-173.08	103.602	31.0405	-188.584	57.4171	-7.35506	-167.356	75.1249	-13.6125	-154.857	96.8722	0.90638	-167.331	45.4445	-6.5425	-149.453	68.5926	-10.2445	-139.589	85.161	14.7173	-156.24	31.3973	8.33232	-141.941	56.4849	5.62141	-144.758	75.6074	27.9099	-149.519	21.3492	24.9196	-133.337	39.958	22.655	-139.808	61.2544	32.6564	-191.75	7.63922	31.1595	-207.987	-1.80869	48.0962	-216.471	17.9483	29.3195	
134	1.11667	-227.467	48.1496	45.2508	-210.161	75.1173	40.604	-193.844	89.6639	34.987	-174.98	100.859	33.0768	-188.247	57.2433	-7.80145	-169.293	81.276	-14.4694	-154.685	94.1732	0.538612	-169.978	47.3118	-7.94144	-148.632	65.5382	-10.3931	-144.25	87.6393	16.008	-157.281	32.2371	6.64569	-142.164	57.388	6.31832	-143.977	73.3026	31.2743	-148.487	21.3885	21.5755	-136.967	43.3596	20.8032	-142.891	62.8971	33.4826	-189.315	10.4249	27.7186	-209.343	-0.138527	41.4586	-218.609	20.0659	24.8364	
135	1.125	-230.04	47.3165	45.4726	-214.014	75.1005	43.5461	-193.651	90.5202	36.2208	-175.732	104.073	34.2553	-185.478	60.6324	-9.65775	-165.09	78.415	-12.1856	-152.124	94.7783	4.15721	-169.753	47.681	-7.13875	-150.235	67.6831	-9.23145	-141.558	84.349	22.2011	-159.163	37.3298	3.9455	-139.622	57.7507	9.8125	-146.042	73.3436	31.1129	-154.673	21.4913	23.3765	-136.19	42.3111	23.1582	-140.311	61.841	36.1982	-193.739	9.93315	26.3029	-206.388	-2.19668	41.8466	-219.603	20.7472	25.0224	
136	1.13333	-224.824	47.4657	42.8685	-210.659	75.9037	42.3566	-196.629	90.7555	39.4836	-174.634	103.398	35.3129	-185.263	61.8804	-9.08824	-164.378	77.3969	-11.6544	-151.144	93.1297	4.52964	-168.892	48.4756	-7.23416	-147.826	69.5454	-5.98053	-144.214	86.0639	22.3016	-158.684	34.23	6.92475	-141.848	54.0889	8.74131	-144.076	71.0036	34.9106	-150.424	22.1548	21.0303	-135.206	38.5404	25.6525	-141.679	62.413	39.9004	-196.601	10.2196	27.0492	-209.691	-2.91242	40.7642	-218.605	20.224	24.4369	
137	1.14167	-224.873	47.6217	42.372	-211.359	75.0726	44.9737	-190.346	88.5318	39.0458	-170.844	99.8081	37.0747	-187.083	60.1692	-6.72818	-165.169	81.4947	-10.8599	-151.841	97.0755	7.18772	-170.012	47.4912	-3.87329	-145.232	69.514	-3.56314	-139.456	81.4101	25.625	-157.81	31.697	8.15984	-138.304	51.9459	12.1542	-144.108	70.6899	35.9426	-152.129	21.3186	21.8033	-135.714	38.7997	26.7653	-137.886	57.8472	37.4835	-196.398	9.21595	24.9602	-211.859	-1.44156	41.4394	-221.098	22.8995	22.4247	
138	1.15	-225.669	48.0764	44.8833	-208.1	73.6762	46.0901	-186.446	91.6139	39.8734	-168.091	100.166	40.1094	-183.044	62.0197	-7.53369	-158.994	79.3609	-8.52683	-147.684	96.5686	11.773	-163.238	47.2285	-4.98435	-142.01	68.3249	0.25836	-137.724	80.8319	27.4678	-158.118	32.3412	7.95223	-138.425	53.4437	12.6281	-137.878	65.7879	36.6009	-151.895	22.3851	20.5521	-133.962	37.2119	27.3213	-135.823	55.5228	37.9385	-192.394	8.42981	21.361	-214.554	-1.05342	40.9851	-219.508	25.2726	21.0507	
139	1.15833	-224.131	53.3522	43.0109	-204.215	77.1266	45.3632	-182.938	88.1056	41.7736	-165.54	94.5737	41.8267	-181.211	65.1787	-7.02737	-157.255	82.2389	-6.26994	-144.12	91.8625	11.8406	-159.072	46.5867	-4.2178	-140.265	64.3418	-0.0761906	-136.09	79.223	28.3143	-154.091	33.0243	8.42997	-134.091	52.4101	16.6761	-138.614	67.1857	38.4318	-154.391	16.8269	23.4712	-133.953	31.7157	26.6401	-134.283	52.7907	42.6847	-196.532	9.65427	24.9247	-211.721	0.118138	35.8659	-218.935	23.5998	23.8747	
140	1.16667	-221.432	53.1249	42.2073	-203.193	77.4189	47.5547	-180.686	89.1329	44.4766	-157.461	95.7974	44.3699	-175.159	63.0275	-4.75353	-150.795	79.5575	-3.27728	-138.373	89.6842	16.1781	-161.529	47.6628	-1.61021	-136.121	63.0934	3.46853	-134.805	77.1139	34.1495	-154.168	33.1211	7.98626	-132.93	53.3425	17.1467	-136.323	66.223	39.0258	-151.269	16.7032	23.2415	-132.634	30.5043	27.1558	-132.186	50.2728	37.89	-195.02	11.0252	23.8501	-216.004	1.54321	39.0906	-219.078	28.5474	19.2511	
141	1.175	-221.453	55.6997	43.2399	-199.228	76.0409	47.7097	-179.599	91.0574	46.5585	-158.659	92.614	47.3431	-175.695	65.2125	-2.82461	-151.715	78.1727	-2.56558	-136.699	92.2546	20.7239	-158.947	45.3071	-1.07202	-133.713	66.9719	6.29647	-131.028	76.2054	33.7157	-148.794	30.7016	9.19433	-130.727	47.1883	18.4695	-130.292	60.2555	39.8622	-147.392	14.7495	22.3568	-131.59	26.7748	26.4184	-126.911	51.1109	41.1721	-191.646	12.5611	21.1535	-212.707	2.14382	34.5188	-216.067	27.8444	22.4134	
142	1.18333	-222.203	57.4572	45.1215	-197.514	77.2154	48.6616	-175.37	88.8379	47.9105	-153.196	89.5337	48.5924	-173.644	64.4969	-3.0526	-146.726	76.113	-0.317745	-133.907	86.6179	19.8505	-156.822	48.8935	-1.43528	-131.394	60.9593	5.96093	-128.061	70.9492	38.0047	-152.368	31.8187	9.27947	-129.646	45.4129	18.8867	-132.235	64.0433	42.2861	-147.235	13.2896	22.8816	-132.088	28.2104	25.8762	-123.868	45.4249	41.876	-194.327	13.0626	21.2284	-212.648	1.67301	33.7421	-216.652	27.6912	22.1603	
143	1.19167	-219.289	57.8783	42.7904	-194.3	75.423	48.4208	-173.253	86.7245	48.5048	-149.969	86.6454	49.2643	-170.87	65.0667	-2.0812	-145.59	76.1128	-0.405097	-132.411	86.5904	22.2474	-152.663	45.5473	-1.28328	-128.636	59.5224	8.55527	-126.221	72.4953	37.129	-151.51	29.6349	9.5685	-127.11	45.6007	21.1322	-127.285	58.3654	39.8784	-151.523	11.4633	24.0789	-131.716	26.9811	26.9992	-125.084	45.8241	45.5815	-194.61	14.5673	17.5671	-213.622	2.44944	33.7824	-215.041	29.1839	22.2896	
144	1.2	-218.453	57.482	43.6481	-192.771	78.774	47.8191	-170.013	86.0028	48.0749	-144.989	87.1385	49.7392	-170.105	64.5804	-2.19505	-144.935	78.8052	2.00615	-130.948	88.345	26.1561	-154.788	44.6968	-0.895068	-129.79	57.5273	6.06104	-125.608	72.0037	36.7603	-147.751	32.0174	8.52686	-129.626	42.8242	17.7509	-126.903	57.1031	44.9089	-152.74	14.6552	22.8666	-130.952	26.2191	30.553	-125.112	40.7939	43.4411	-195.518	14.8653	18.0697	-216.068	3.89151	32.1613	-214.521	33.0255	19.2788	
145	1.20833	-216.319	60.9421	41.3921	-191.818	77.1568	48.469	-166.934	84.1418	48.2705	-144.704	83.1872	50.473	-165.928	65.4298	-2.11138	-143.937	75.2199	1.66656	-130.26	84.6768	22.505	-155.315	43.092	0.315411	-129.462	54.4713	7.0722	-123.946	69.9518	38.2203	-153.368	30.0247	9.45312	-128.738	41.0994	20.2592	-128.236	55.5969	44.493	-148.103	10.8765	22.152	-131.9	21.8132	30.9865	-125.741	38.7375	46.4521	-195.622	12.4654	19.8401	-217.426	3.16139	31.2275	-217.606	33.5067	20.6067	
146	1.21667	-215.918	55.9377	41.6923	-190.686	73.6315	48.111	-169.825	85.6372	50.6032	-146.282	78.9894	50.6038	-166.421	61.7608	-2.59895	-145.439	74.726	-0.0495958	-126.765	83.129	25.5275	-157.253	44.0372	-2.2387	-129.48	52.8809	5.95573	-122.502	64.9576	33.8095	-150.471	28.521	7.5787	-127.436	41.1321	20.7234	-125.714	50.7697	40.2955	-151.453	9.84329	22.8632	-133.773	21.7055	27.7467	-126.048	40.0688	43.5997	-197.701	12.815	19.5739	-218.246	4.61028	29.8966	-218.516	30.3794	18.1259	
147	1.225	-214.87	58.6854	40.8051	-190.679	77.1723	48.9798	-166.937	78.7434	47.8552	-142.229	79.0469	50.7341	-168.933	62.8856	-3.79502	-143.354	71.1856	-0.601537	-126.887	78.8484	19.8152	-155.126	39.6454	-1.44464	-130.339	50.2559	3.75556	-120.71	60.9087	30.9504	-153.248	23.5121	8.79569	-130.258	38.4568	18.2039	-125.226	48.6004	43.036	-152.977	6.12087	21.6573	-133.948	21.2074	28.8416	-126.38	36.6148	44.8986	-196.745	11.018	17.5296	-223.853	7.22541	32.6654	-220.278	35.8459	19.8236	
148	1.23333	-216.752	61.2864	41.8666	-186.739	75.3164	48.024	-164.679	77.7811	48.928	-139.862	76.1516	52.9678	-167.822	58.2849	-2.53268	-140.7	64.2644	-0.15373	-122.191	70.378	22.0447	-157.342	40.484	-1.99687	-129.056	47.8659	5.60283	-118.962	53.7013	35.1796	-152.776	20.4628	8.86512	-130.687	32.9516	17.7965	-126.067	47.3483	41.3274	-156.579	5.63414	21.2482	-135.585	17.2669	27.9047	-126.686	31.5814	45.4734	-198.966	12.2789	17.0977	-227.786	10.6417	31.4069	-219.488	35.8552	18.201	
